<?xml version="1.0" standalone="no"?>
<!DOCTYPE svg PUBLIC "-//W3C//DTD SVG 20010904//EN"
 "http://www.w3.org/TR/2001/REC-SVG-20010904/DTD/svg10.dtd">
<svg version="1.0" xmlns="http://www.w3.org/2000/svg"
 width="748.000000pt" height="748.000000pt" viewBox="0 0 748.000000 748.000000"
 preserveAspectRatio="xMidYMid meet">
<metadata>
Created by potrace 1.11, written by Peter Selinger 2001-2013
</metadata>
<g transform="translate(0.000000,748.000000) scale(0.100000,-0.100000)"
fill="#000000" stroke="none">
<path d="M1446 6530 l-930 -930 3227 0 3227 0 0 930 0 930 -2297 0 -2298 0
-929 -930z"/>
<path d="M520 2735 l0 -2725 935 0 935 0 0 2725 0 2725 -935 0 -935 0 0 -2725z"/>
<path d="M5070 3740 l0 -1720 950 0 950 0 0 1720 0 1720 -950 0 -950 0 0
-1720z"/>
<path d="M2540 3735 l0 -785 148 0 147 0 85 81 c100 96 247 237 541 520 118
114 234 226 259 249 75 71 442 425 599 577 l146 142 -962 1 -963 0 0 -785z"/>
<path d="M4664 4506 c-10 -10 -391 -377 -489 -471 -23 -22 -147 -141 -275
-265 -128 -124 -244 -236 -259 -249 -14 -13 -149 -144 -300 -290 l-274 -266
34 -5 c19 -3 440 -7 937 -9 l902 -3 0 786 0 786 -133 -1 c-82 -1 -136 -6 -143
-13z"/>
<path d="M2540 940 l0 -930 1243 0 1242 1 105 102 c104 101 458 439 555 532
28 26 97 93 156 149 205 198 515 494 574 551 33 31 143 137 245 234 102 98
212 204 245 235 l60 56 -2213 0 -2212 0 0 -930z"/>
</g>
</svg>
